<svg xmlns="http://www.w3.org/2000/svg" id="f330c610-8917-4b43-9629-fefcf4aaf159" data-name="Layer 1" viewBox="0 0 42.6297 65.9673"><title>happy-teeth-a</title><g id="fc3a8f83-9c31-423b-a380-104a3dbff897" data-name="Chosen-Website-Pages"><path d="M39.979,4.3076C37.9917,1.5059,34.9585.0557,30.8706,0a20.4629,20.4629,0,0,0-9.83,3.4209C18.7417,2.105,10.2631-2.0688,4.01,3.7881.8618,6.7358-.4732,11.11.1489,16.438A32.6,32.6,0,0,0,3.6162,27.271c1.4619,2.7324.9326,6.832.3725,11.1719a64.089,64.089,0,0,0-.6562,7.2509C3.2275,52.9575,8.5864,64.8,12.434,65.8081a2.9509,2.9509,0,0,0,2.76-.6094c2.8442-2.41,2.5869-10.2216,2.1807-14.6631-.6446-7.0419.2944-13.4863,2.2827-15.6709a1.6062,1.6062,0,0,1,1.1718-.6308h.0044a2.3992,2.3992,0,0,1,1.7583.92c1.6954,1.8691,3.2032,6.9043,2.3477,15.4287-.9736,9.7,1.7109,13.2862,2.91,14.377a3.44,3.44,0,0,0,2.27,1.0078,2.4254,2.4254,0,0,0,.4609-.044c2.5615-.5039,8.6465-9.6621,8.3984-20.0449-.2431-10.1924-.2314-13.0849,1.5967-18.561C40.6274,27.167,45.5434,12.1519,39.979,4.3076ZM38.68,26.6841c-1.93,5.7768-1.9443,8.9892-1.7,19.2412.2315,9.6885-5.3623,17.5928-6.7851,18.0351-.1406.0323-.5166-.04-.999-.4794-.7608-.6934-3.1739-3.6553-2.2657-12.6993.7813-7.7939-.2861-14.1377-2.8564-16.9716a4.36,4.36,0,0,0-3.24-1.5762h-.01a3.5773,3.5773,0,0,0-2.6455,1.2842c-2.375,2.6093-3.4981,9.5205-2.7959,17.1992.7334,8.0146-.3394,11.9873-1.4815,12.9551a.9624.9624,0,0,1-.96.2c-2.461-.6446-7.708-11.2383-7.6084-18.1495a62.5137,62.5137,0,0,1,.64-7.0234c.6021-4.667,1.1714-9.0757-.5928-12.3721C2.5883,21.1108-.5533,10.8008,5.3769,5.248c2.53-2.3691,5.812-3.0761,9.7515-2.102a19.2619,19.2619,0,0,1,5.3974,2.2978l.5782.3843.5615-.4048A18.4244,18.4244,0,0,1,30.934,1.9971c3.3682.0493,5.794,1.1841,7.4141,3.4677C42.4838,11.2954,39.99,22.7593,38.68,26.6841Z"></path><path d="M27.1155,13.9406a1.6343,1.6343,0,1,0,2.0029,1.1672A1.6392,1.6392,0,0,0,27.1155,13.9406Z"></path><path d="M17.5684,16.4263a1.6344,1.6344,0,1,0-2.003-1.1673A1.6393,1.6393,0,0,0,17.5684,16.4263Z"></path><path d="M25.2368,20.4336l-7.1006-.0713a.9492.9492,0,0,0-.8862.5181.9992.9992,0,0,0,.0376,1.0263c.2006.3081,2.0219,2.9956,4.6054,2.9956l.0528,0c1.5625-.022,2.9541-1.0137,4.1347-2.9478a1,1,0,0,0-.8437-1.5205Z"></path></g></svg>